<svg width="20" height="20" viewBox="0 0 20 20" fill="none" xmlns="http://www.w3.org/2000/svg">
<path fill-rule="evenodd" clip-rule="evenodd" d="M16.6666 2.5H3.33325C1.95663 2.5 0.841585 3.62279 0.841585 5L0.833252 14.9993C0.833252 16.3769 1.95635 17.5 3.33325 17.5H16.6666C18.0435 17.5 19.1666 16.3769 19.1666 15V5C19.1666 3.6231 18.0435 2.5 16.6666 2.5ZM4.57003 7.50016C4.17582 7.26264 4.04879 6.75052 4.28632 6.35631C4.52384 5.9621 5.03596 5.83508 5.43017 6.0726L9.97546 8.81126L14.7182 5.95366C15.113 5.71576 15.6259 5.84298 15.8639 6.23783C16.1012 6.63177 15.9752 7.1435 15.582 7.38213L10.0084 10.7649L10.0031 10.7737L4.57003 7.50016Z" fill="#C8C8C8"/>
<mask id="mask0" mask-type="alpha" maskUnits="userSpaceOnUse" x="0" y="2" width="20" height="16">
<path fill-rule="evenodd" clip-rule="evenodd" d="M16.6666 2.5H3.33325C1.95663 2.5 0.841585 3.62279 0.841585 5L0.833252 14.9993C0.833252 16.3769 1.95635 17.5 3.33325 17.5H16.6666C18.0435 17.5 19.1666 16.3769 19.1666 15V5C19.1666 3.6231 18.0435 2.5 16.6666 2.5ZM4.57003 7.50016C4.17582 7.26264 4.04879 6.75052 4.28632 6.35631C4.52384 5.9621 5.03596 5.83508 5.43017 6.0726L9.97546 8.81126L14.7182 5.95366C15.113 5.71576 15.6259 5.84298 15.8639 6.23783C16.1012 6.63177 15.9752 7.1435 15.582 7.38213L10.0084 10.7649L10.0031 10.7737L4.57003 7.50016Z" fill="white"/>
</mask>
<g mask="url(#mask0)">
<rect width="20" height="20" fill="#002D59"/>
</g>
</svg>
