<svg width="69" height="63" viewBox="0 0 69 63" fill="none" xmlns="http://www.w3.org/2000/svg">
<g clip-path="url(#clip0)">
<path d="M6.11631 10.4235L9.92642 17.084C10.0549 17.3091 10.2701 17.4719 10.5216 17.5349L14.0762 18.4227L26.2679 30.6019L27.615 29.2566L15.2325 16.8871C15.1107 16.765 14.9579 16.6785 14.7905 16.6366L11.375 15.7806L8.13108 10.1065L10.9123 7.32815L16.5945 10.5719L17.4518 13.9839C17.4934 14.1515 17.5803 14.3045 17.7022 14.4263L30.0847 26.7961L31.4314 25.4503L19.2397 13.2712L18.3511 9.72211C18.288 9.47042 18.125 9.25514 17.8997 9.12636L11.232 5.32054C10.8601 5.10917 10.3923 5.17179 10.089 5.47358L6.27931 9.2798C5.9729 9.5808 5.90629 10.0489 6.11631 10.4235Z" fill="white"/>
<path d="M45.7161 23.941L24.7616 44.8744L23.4146 43.5287L44.3694 22.5957L45.7161 23.941Z" fill="white"/>
<path d="M21.0941 45.615C20.9217 45.3285 20.6121 45.1535 20.2775 45.1535H14.5627C14.2285 45.1535 13.9186 45.3285 13.7466 45.615L10.889 50.3724C10.7076 50.6738 10.7076 51.0507 10.889 51.3525L13.7466 56.1099C13.9186 56.396 14.2285 56.5714 14.5627 56.5714H20.2775C20.6121 56.5714 20.9217 56.396 21.0941 56.1099L23.9513 51.3525C24.1327 51.0507 24.1327 50.6738 23.9513 50.3724L21.0941 45.615ZM19.7388 54.6683H15.1019L12.816 50.8624L15.1019 47.0562H19.7388L22.0247 50.8624L19.7388 54.6683Z" fill="white"/>
<path d="M51.7095 28.0263C58.0003 28.0474 63.1175 22.9699 63.1387 16.6855C63.1418 15.7289 63.0242 14.7762 62.7888 13.8489C62.6618 13.3389 62.145 13.0285 61.6344 13.1553C61.4667 13.1972 61.3139 13.2837 61.1917 13.4054L55.2626 19.3245L50.5583 17.7584L48.9894 13.0602L54.9185 7.13594C55.2904 6.76409 55.29 6.16168 54.9178 5.79022C54.7951 5.66771 54.6407 5.58081 54.4719 5.53932C48.3711 3.99593 42.1736 7.68511 40.6287 13.7792C40.394 14.7038 40.2768 15.6541 40.2799 16.608C40.2823 17.3572 40.3595 18.1041 40.5115 18.8376L19.6519 39.6755C18.9176 39.524 18.17 39.4469 17.4204 39.4442C11.1077 39.4442 5.99048 44.5562 5.99048 50.8624C5.99048 57.1683 11.1077 62.2803 17.4204 62.2803C23.7327 62.2803 28.85 57.1683 28.85 50.8624C28.8476 50.1132 28.7701 49.3664 28.6184 48.6329L33.6122 43.6441L35.7963 45.826C36.1685 46.1974 36.7711 46.1974 37.1434 45.826L37.6194 45.35C38.0371 44.9355 38.7122 44.9355 39.1299 45.35C39.5472 45.7657 39.548 46.4405 39.1319 46.8574C39.1315 46.8577 39.1307 46.8585 39.1299 46.8593L38.6539 47.3349C38.282 47.7064 38.282 48.3088 38.6539 48.6802L50.016 60.0308C53.0045 63.0436 57.8717 63.0655 60.8876 60.0801C63.9031 57.0947 63.925 52.232 60.9366 49.2196C60.9205 49.2032 60.9041 49.1867 60.8876 49.1703L49.5255 37.8201C49.1536 37.4487 48.5506 37.4487 48.1787 37.8201L47.7027 38.2957C47.2846 38.7106 46.6099 38.7106 46.1918 38.2957C45.7749 37.88 45.7737 37.2052 46.1898 36.7887C46.1906 36.788 46.1914 36.7876 46.1918 36.7868L46.6683 36.3108C47.0401 35.9393 47.0401 35.3369 46.6683 34.9655L44.4842 32.7837L49.478 27.795C50.2123 27.9464 50.9599 28.0239 51.7095 28.0263ZM55.4518 60.3776C54.7599 60.3764 54.0738 60.2515 53.4261 60.0084L60.8649 52.5769C61.9875 55.5599 60.477 58.887 57.4909 60.0084C56.8393 60.2531 56.1485 60.3783 55.4518 60.3776ZM44.6613 35.6477C43.6065 36.9046 43.7719 38.778 45.03 39.8313C46.1358 40.757 47.7473 40.7562 48.8519 39.8285L59.5409 50.516C59.6569 50.6323 59.7654 50.7548 59.8704 50.8792L51.7267 59.0146C51.6017 58.9101 51.4791 58.8017 51.3627 58.6854L40.6655 47.9984C41.7203 46.7415 41.5549 44.8681 40.2968 43.8148C39.191 42.8887 37.5791 42.8899 36.4745 43.8172L34.9507 42.2949L43.1371 34.129L44.6613 35.6477ZM48.5075 26.0778L26.9003 47.6586C26.6632 47.895 26.568 48.2383 26.6487 48.5628C27.9554 53.6893 24.8545 58.9035 19.7224 60.2085C14.5907 61.5139 9.37115 58.4161 8.06441 53.2893C6.75807 48.1628 9.85897 42.9486 14.9911 41.6432C16.5435 41.2486 18.17 41.2486 19.7224 41.6432C20.0472 41.7226 20.3901 41.6275 20.6275 41.3923L42.2297 19.8111C42.4663 19.5746 42.5615 19.2314 42.48 18.9073C41.1823 13.8407 44.2417 8.68246 49.3135 7.38567C50.2719 7.14103 51.2632 7.04709 52.2506 7.10854L47.2262 12.1297C46.9711 12.3842 46.8818 12.7611 46.9958 13.1028L48.9005 18.8121C48.9957 19.0959 49.219 19.319 49.5035 19.4134L55.2187 21.3165C55.5604 21.4304 55.9377 21.3415 56.1928 21.0871L61.2171 16.0679C61.2285 16.2495 61.2344 16.4292 61.2344 16.608C61.261 21.8363 57.0403 26.0962 51.8067 26.1232C50.9975 26.1271 50.1912 26.0277 49.4075 25.8273C49.0827 25.7462 48.7391 25.841 48.5024 26.0774H48.5075V26.0778Z" fill="white"/>
<path d="M55.2412 53.0439L53.8941 54.3896L44.3696 44.8748L45.7163 43.5291L55.2412 53.0439Z" fill="white"/>
</g>
<defs>
<clipPath id="clip0">
<rect width="57.13" height="57.0715" fill="white" transform="translate(5.93555 5.18823)"/>
</clipPath>
</defs>
</svg>
