<svg width="70" height="69" viewBox="0 0 70 69" fill="none" xmlns="http://www.w3.org/2000/svg">
<g clip-path="url(#clip0)">
<path d="M51.1373 33.3838C51.1385 32.2548 50.6232 31.1877 49.7389 30.4861C50.6716 29.3872 50.8808 27.8466 50.2754 26.539C49.6693 25.2308 48.3587 24.3942 46.9178 24.3954H38.6964L39.036 23.4969C39.5707 22.089 39.8437 20.5957 39.8425 19.0899V18.9561C39.8419 17.8112 39.378 16.7152 38.5555 15.9181C37.7337 15.121 36.6241 14.6906 35.4798 14.7248C33.1634 14.848 31.3547 16.7724 31.3747 19.0917C31.3747 20.19 29.8312 22.7139 28.5808 24.3971H19.3088C18.7251 24.3971 18.2523 24.87 18.2523 25.4536V46.6005C18.2523 47.1842 18.7251 47.657 19.3088 47.657H45.2635C46.5983 47.6576 47.8299 46.9389 48.4861 45.7769C49.1416 44.6143 49.121 43.1887 48.4306 42.0462C49.4918 41.571 50.2677 40.6236 50.5247 39.4892C50.7824 38.3549 50.4906 37.1658 49.7383 36.2791C50.622 35.5781 51.1373 34.5116 51.1373 33.3838ZM20.3653 26.5107H28.046V45.544H20.3653V26.5107ZM47.4372 34.9709H46.9172C46.3336 34.9709 45.8608 35.4437 45.8608 36.0274C45.8608 36.611 46.3336 37.0838 46.9172 37.0838C47.7933 37.0838 48.5037 37.7943 48.5037 38.6709C48.5037 39.547 47.7933 40.2574 46.9172 40.2574H45.2635C44.6799 40.2574 44.207 40.7309 44.207 41.3139C44.207 41.8976 44.6799 42.3704 45.2635 42.3704C46.1396 42.3704 46.85 43.0808 46.85 43.9575C46.85 44.8336 46.1396 45.544 45.2635 45.544H30.159V25.8115C31.0546 24.6271 33.4877 21.2112 33.4877 19.0923C33.46 17.9132 34.3638 16.9203 35.5399 16.8366C36.1142 16.8189 36.6713 17.0347 37.084 17.4344C37.4961 17.8342 37.729 18.3842 37.729 18.9584V19.0923C37.7301 20.3421 37.5032 21.582 37.0598 22.7505L36.179 25.0822C36.0564 25.407 36.1006 25.7708 36.2981 26.0567C36.495 26.3421 36.8199 26.5125 37.1671 26.5131H46.9172C47.7933 26.5131 48.5037 27.2235 48.5037 28.0996C48.5037 28.9762 47.7933 29.6866 46.9172 29.6866C46.3336 29.6866 45.8608 30.1595 45.8608 30.7431C45.8608 31.3268 46.3336 31.7996 46.9172 31.7996H47.4372C48.3139 31.7996 49.0243 32.51 49.0243 33.3867C49.0243 34.2634 48.3139 34.9738 47.4372 34.9738V34.9709ZM23.4781 39.4179C21.9594 39.4179 20.729 40.6489 20.729 42.167C20.729 43.6857 21.9594 44.9161 23.4781 44.9161C24.9963 44.9161 26.2273 43.6857 26.2273 42.167C26.2255 40.6495 24.9957 39.4197 23.4781 39.4179ZM23.4781 42.8026C23.1268 42.8026 22.8414 42.5178 22.842 42.1664C22.842 41.8151 23.1268 41.5297 23.4781 41.5303C23.8301 41.5303 24.1149 41.8156 24.1143 42.167C24.1137 42.5184 23.8289 42.8026 23.4781 42.8026ZM67.4398 31.9848C68.4155 30.4525 68.7368 28.5936 68.3324 26.8226C67.9285 25.0521 66.8325 23.5163 65.2891 22.5589C63.7468 21.5967 62.8966 19.8322 63.1059 18.0264C63.32 16.2229 62.8029 14.4082 61.6704 12.9886C60.5378 11.5683 58.8841 10.6604 57.0783 10.467C55.2713 10.2701 53.7402 9.05032 53.1448 7.33293C52.5546 5.61496 51.3018 4.20473 49.6652 3.41649C48.0286 2.62884 46.1443 2.52803 44.4334 3.13822C42.7196 3.7437 40.81 3.30802 39.5289 2.01865C38.2519 0.726926 36.5109 0 34.6945 0C32.8781 0 31.1371 0.726926 29.8601 2.01865C28.579 3.3086 26.6688 3.74429 24.9556 3.13822C23.2441 2.52862 21.361 2.62943 19.7244 3.41708C18.0884 4.20532 16.835 5.61555 16.2448 7.33293C15.6506 9.05091 14.1189 10.2719 12.3119 10.4688C10.5055 10.6622 8.85178 11.5701 7.71982 12.9903C6.58728 14.4106 6.07024 16.2247 6.28366 18.0287C6.49354 19.8339 5.64339 21.5985 4.1017 22.5607C2.55823 23.5181 1.46224 25.0533 1.0584 26.8238C0.653958 28.5942 0.975267 30.4525 1.94981 31.9848C2.92199 33.5205 2.92199 35.4791 1.94981 37.0149C0.974678 38.5477 0.653368 40.4066 1.05722 42.177C1.46165 43.9481 2.55764 45.4839 4.10052 46.4413C5.64339 47.4035 6.49295 49.168 6.28366 50.9733C6.07024 52.7773 6.58728 54.5914 7.71982 56.0116C8.85178 57.4319 10.5055 58.3398 12.3119 58.5332C14.1183 58.7295 15.65 59.9499 16.2448 61.6667C16.835 63.3847 18.0884 64.7949 19.725 65.5831C21.3616 66.3714 23.2453 66.4716 24.9568 65.862C26.67 65.2553 28.5802 65.691 29.8613 66.9816C31.1383 68.2733 32.8793 69.0002 34.6957 69.0002C36.5121 69.0002 38.2531 68.2733 39.5301 66.9816C40.8112 65.6916 42.7208 65.2559 44.4346 65.862C46.1455 66.4716 48.0291 66.3708 49.6652 65.5825C51.3018 64.7949 52.5546 63.3847 53.1448 61.6667C53.7396 59.9493 55.2713 58.7283 57.0783 58.5314C58.8841 58.338 60.5378 57.4301 61.6704 56.0099C62.8029 54.5896 63.32 52.7755 63.1059 50.9715C62.8966 49.1663 63.7462 47.4017 65.2885 46.4396C66.832 45.4821 67.9279 43.9463 68.3324 42.1759C68.7368 40.4048 68.4155 38.546 67.4398 37.0131C66.4688 35.4779 66.4688 33.5205 67.4398 31.9848ZM65.6576 38.1492C66.3297 39.2057 66.5513 40.4868 66.2725 41.7072C65.9942 42.9276 65.2384 43.9858 64.1748 44.6461C61.9368 46.0422 60.7035 48.6026 61.0077 51.2226C61.1551 52.466 60.7984 53.7165 60.0178 54.6951C59.2373 55.6738 58.0976 56.2993 56.8531 56.4326C54.2307 56.7191 52.0087 58.4907 51.1461 60.9834C50.7393 62.1672 49.8756 63.1394 48.7478 63.6824C47.62 64.2254 46.3218 64.2949 45.1427 63.8746C42.6559 62.9944 39.885 63.627 38.0261 65.4988C37.1465 66.3891 35.9467 66.8902 34.6945 66.8902C33.4429 66.8902 32.2431 66.3891 31.3629 65.4988C29.5052 63.6258 26.7331 62.9932 24.2463 63.8746C23.0672 64.2949 21.769 64.2254 20.6412 63.6824C19.5134 63.1394 18.6497 62.1672 18.2435 60.9834C17.3809 58.4907 15.1583 56.7191 12.5365 56.4326C11.2914 56.2993 10.1518 55.6738 9.37118 54.6951C8.5906 53.7165 8.23451 52.466 8.3819 51.2226C8.68611 48.6026 7.45334 46.0416 5.21479 44.6461C4.15063 43.9858 3.39541 42.9276 3.11655 41.7072C2.83827 40.4868 3.05995 39.2057 3.73204 38.1492C5.14286 35.9212 5.14286 33.079 3.73204 30.8504C3.05995 29.7945 2.83827 28.5134 3.11655 27.2924C3.39541 26.0721 4.15063 25.0138 5.21479 24.3541C7.45275 22.958 8.68611 20.3976 8.38249 17.7776C8.2351 16.5342 8.59119 15.2837 9.37177 14.3051C10.1523 13.3258 11.292 12.7003 12.5371 12.567C15.1589 12.2811 17.3815 10.5089 18.244 8.01623C18.6502 6.8324 19.514 5.86081 20.6418 5.31723C21.7696 4.77425 23.0678 4.70527 24.2469 5.12563C26.7337 6.00525 29.5052 5.37324 31.3635 3.50139C32.2437 2.61116 33.4435 2.11003 34.6951 2.11003C35.9473 2.11003 37.1471 2.61116 38.0267 3.50139C39.8856 5.37324 42.6565 6.00525 45.1433 5.12563C46.3224 4.70527 47.6206 4.77425 48.7484 5.31723C49.8762 5.86081 50.7399 6.8324 51.1467 8.01623C52.0093 10.5089 54.2313 12.2811 56.8537 12.567C58.0982 12.7003 59.2378 13.3258 60.0184 14.3051C60.799 15.2837 61.1557 16.5342 61.0083 17.7776C60.7035 20.3976 61.9368 22.9586 64.1754 24.3541C65.239 25.0138 65.9948 26.0721 66.273 27.2924C66.5519 28.5134 66.3302 29.7945 65.6581 30.8504C64.2467 33.079 64.2467 35.9206 65.6576 38.1492ZM34.6951 8.79976C20.5009 8.79976 8.99504 20.3068 8.99504 34.5004C8.99504 48.694 20.5021 60.2005 34.6957 60.2005C48.8899 60.2005 60.3957 48.694 60.3957 34.4998C60.3798 20.3127 48.8822 8.81567 34.6951 8.79976ZM34.6951 58.0881C21.6682 58.0875 11.108 47.5273 11.108 34.5004C11.108 21.4735 21.6682 10.9133 34.6951 10.9133C47.722 10.9127 58.2828 21.4729 58.2828 34.4998C58.268 47.5208 47.7161 58.0727 34.6951 58.0875V58.0881Z" fill="white"/>
</g>
<defs>
<clipPath id="clip0">
<rect width="69" height="69" fill="white" transform="translate(0.106201)"/>
</clipPath>
</defs>
</svg>
