<svg width="16" height="16" viewBox="0 0 16 16" fill="none" xmlns="http://www.w3.org/2000/svg">
<path d="M8.00008 0C11.1952 0 13.7947 2.59944 13.7947 5.79456C13.7947 9.75981 8.60908 15.581 8.3883 15.8269C8.18093 16.0579 7.81886 16.0575 7.61187 15.8269C7.39108 15.581 2.20549 9.75981 2.20549 5.79456C2.20555 2.59944 4.80496 0 8.00008 0ZM8.00008 8.70997C9.60765 8.70997 10.9155 7.40212 10.9155 5.79456C10.9155 4.187 9.60762 2.87919 8.00008 2.87919C6.39255 2.87919 5.08474 4.18703 5.08474 5.79459C5.08474 7.40216 6.39255 8.70997 8.00008 8.70997Z" fill="#C8C8C8"/>
</svg>
