<svg width="114" height="23" viewBox="0 0 114 23" fill="none" xmlns="http://www.w3.org/2000/svg">
<path d="M76.2288 15.9024V10.8589C76.2288 8.94194 77.345 7.72673 79.3802 7.45437C80.1877 7.34303 80.5938 7.42714 81.0426 7.53448L81.0419 4.11798C78.1176 4.11798 76.7322 4.86377 76.1069 6.95613H76.0594V4.56256H71.7925V15.932L76.2288 15.8895" fill="white"/>
<path d="M98.5083 12.2496C99.2888 15.5339 102.466 16.4952 106.504 16.4752C109.665 16.4752 113.023 15.3032 113.023 12.1671C113.023 7.4232 103.405 9.22397 103.405 7.26298C103.405 6.49877 104.869 6.29931 105.59 6.29931C106.201 6.29931 107.173 6.45952 107.49 6.69984C107.796 6.94015 108.203 7.18048 108.203 7.68114H112.465C111.705 5.2299 108.984 3.89212 105.752 3.89212C101.846 3.89212 98.7743 5.14338 98.7743 8.05764C98.7743 12.5436 108.353 10.7812 108.353 12.9096C108.353 13.7988 106.83 14.0143 105.875 13.9734C105.228 13.9454 104.394 13.8365 103.774 13.4023C103.398 13.2108 103.022 12.6701 102.94 12.2007H98.5083" fill="white"/>
<path d="M29.1774 4.58578V10.8292C29.1687 12.2223 28.2608 13.564 26.6094 13.5528C24.9644 13.5528 24.0342 12.1926 24.0342 10.6971V4.57455L19.5513 4.58098V11.2554C19.5513 14.5397 22.322 16.3822 25.0135 16.3533C26.6268 16.3533 28.085 15.7814 29.2218 14.6351H29.2693V15.9192H33.6319V4.57536H29.1774" fill="white"/>
<path d="M92.017 4.49927V10.7427C92.0091 12.1358 91.1003 13.4759 89.449 13.4759C87.8071 13.4759 86.8762 12.115 86.8762 10.6194V4.49927L82.3987 4.48087L82.3916 11.1761C82.3916 14.5405 85.1623 16.3029 87.8538 16.2764C89.4687 16.2764 90.9261 15.7053 92.0645 14.5558H92.1096V15.8407H96.4723V4.49847H92.017" fill="white"/>
<path d="M92.017 4.49927V10.7427C92.0091 12.1358 91.1003 13.4759 89.449 13.4759C87.8071 13.4759 86.8762 12.115 86.8762 10.6194V4.49927L82.3987 4.48087L82.3916 11.1761C82.3916 14.5405 85.1623 16.3029 87.8538 16.2764C89.4687 16.2764 90.9261 15.7053 92.0645 14.5558H92.1096V15.8407H96.4723V4.49847H92.017" fill="white"/>
<path d="M0.0175781 22.9997H112.347V20.8817H0.0175781V22.9997Z" fill="white"/>
<path d="M44.0744 13.5448C42.1824 13.5448 40.6482 12.0453 40.6482 10.1948C40.6482 8.34356 42.1824 6.84316 44.0744 6.84316C45.9663 6.84316 47.4784 8.36519 47.4784 10.1948C47.4989 12.0453 45.9663 13.5448 44.0744 13.5665V13.5448ZM47.2804 0.0549872V5.34518C46.1453 4.29099 44.387 3.99459 42.818 3.99459C38.0857 4.07069 35.8462 7.67948 35.8462 10.4055C35.8462 14.2506 39.9626 16.4134 42.8917 16.4134C44.8367 16.4134 46.5616 15.8254 47.3731 14.6222H47.4253V15.9961H51.8378V0.0221558H47.2804" fill="white"/>
<path d="M58.8945 8.84266C59.1011 7.50329 60.1659 6.44349 61.8267 6.44349C63.4543 6.44349 64.5183 7.48486 64.7557 8.84666H58.8945V8.84266ZM61.9083 3.98025C57.2836 3.98025 53.9556 6.18956 53.9556 10.44C53.9556 14.4453 57.6762 16.528 61.8718 16.5064C65.0304 16.5064 67.9761 15.304 69.1896 12.6861H64.7573C64.1802 13.6955 63.0751 13.951 61.9273 13.951C60.1231 13.951 59.0038 12.9833 58.8352 11.241H69.6551C70.0881 7.97192 67.8874 3.98023 61.9083 3.9538" fill="white"/>
<path d="M8.58599 13.0106H4.72681V9.2464H9.69348C11.4857 9.2464 12.2267 9.88725 12.2267 11.249C12.1942 12.4659 11.458 13.0106 8.58599 13.0058V13.0106ZM4.72681 3.08547H9.33487C11.3076 3.08547 11.7889 3.64621 11.7889 4.60748C11.7889 5.608 11.2862 6.41627 9.31271 6.41627H4.70465V3.08547H4.72681ZM13.6603 7.54735C13.6207 7.55376 13.5851 7.5666 13.5447 7.57461L13.5661 7.52975C13.5986 7.53296 13.6271 7.54335 13.6603 7.54735C15.7193 7.17005 17.0326 5.769 16.8854 3.73912C16.7785 2.25316 16.1049 -0.128375 9.98954 0.00540214H0V16.0819L11.2562 16.061C15.6742 16.1411 17.5591 13.7724 17.5694 11.4461C17.5773 9.45468 16.0605 7.8782 13.6603 7.55857" fill="white"/>
</svg>
