<svg width="16" height="16" viewBox="0 0 16 16" fill="none" xmlns="http://www.w3.org/2000/svg">
<path fill-rule="evenodd" clip-rule="evenodd" d="M13.3334 2H2.66675C1.56545 2 0.673414 2.89823 0.673414 4L0.666748 11.9994C0.666748 13.1015 1.56522 14 2.66675 14H13.3334C14.4349 14 15.3334 13.1015 15.3334 12V4C15.3334 2.89848 14.4349 2 13.3334 2ZM3.65615 6.0001C3.34078 5.81008 3.23917 5.40038 3.42918 5.08502C3.6192 4.76965 4.0289 4.66803 4.34427 4.85805L7.98055 7.04901L11.7747 4.76296C12.0905 4.57264 12.5009 4.67442 12.6912 4.99029C12.8811 5.30545 12.7803 5.71483 12.4657 5.90574L8.00676 8.61198L8.00257 8.61893L3.65615 6.0001Z" fill="#C8C8C8"/>
<mask id="mask0" mask-type="alpha" maskUnits="userSpaceOnUse" x="0" y="2" width="16" height="12">
<path fill-rule="evenodd" clip-rule="evenodd" d="M13.3334 2H2.66675C1.56545 2 0.673414 2.89823 0.673414 4L0.666748 11.9994C0.666748 13.1015 1.56522 14 2.66675 14H13.3334C14.4349 14 15.3334 13.1015 15.3334 12V4C15.3334 2.89848 14.4349 2 13.3334 2ZM3.65615 6.0001C3.34078 5.81008 3.23917 5.40038 3.42918 5.08502C3.6192 4.76965 4.0289 4.66803 4.34427 4.85805L7.98055 7.04901L11.7747 4.76296C12.0905 4.57264 12.5009 4.67442 12.6912 4.99029C12.8811 5.30545 12.7803 5.71483 12.4657 5.90574L8.00676 8.61198L8.00257 8.61893L3.65615 6.0001Z" fill="white"/>
</mask>
<g mask="url(#mask0)">
<rect width="16" height="16" fill="#C8C8C8"/>
</g>
</svg>
