<svg width="60" height="59" viewBox="0 0 60 59" fill="none" xmlns="http://www.w3.org/2000/svg">
<g clip-path="url(#clip0)">
<path d="M10.0101 52.4237C9.79593 52.2092 9.49862 52.086 9.19556 52.086C8.89249 52.086 8.59519 52.2092 8.38085 52.4237C8.16651 52.6381 8.04321 52.9353 8.04321 53.2384C8.04321 53.5414 8.1664 53.8387 8.38085 54.053C8.59519 54.2673 8.89249 54.3907 9.19556 54.3907C9.49862 54.3907 9.79593 54.2674 10.0101 54.053C10.2245 53.8387 10.3479 53.5414 10.3479 53.2384C10.3479 52.9353 10.2246 52.638 10.0101 52.4237Z" fill="white"/>
<path d="M54.312 21.0807C54.0977 20.8663 53.8015 20.7431 53.4973 20.7431C53.1942 20.7431 52.8969 20.8663 52.6826 21.0807C52.4684 21.2951 52.345 21.5924 52.345 21.8954C52.345 22.1985 52.4683 22.4958 52.6826 22.71C52.8969 22.9244 53.1942 23.0478 53.4973 23.0478C53.8015 23.0478 54.0977 22.9245 54.312 22.71C54.5274 22.4958 54.6507 22.1985 54.6507 21.8954C54.6507 21.5924 54.5274 21.2951 54.312 21.0807Z" fill="white"/>
<path d="M58.8697 0.337521C58.6535 0.121457 58.3604 0 58.0547 0L29.7077 0.00149805C29.0714 0.00149805 28.5555 0.517518 28.5555 1.15384V4.4492L17.6325 7.37604C17.0177 7.54082 16.6529 8.17265 16.8177 8.78731L22.4788 29.9146L17.5815 34.812C16.9582 33.9018 15.9116 33.3033 14.7278 33.3033H3.66566C1.75945 33.3033 0.20874 34.8541 0.20874 36.7602V55.543C0.20874 57.4492 1.75945 59 3.66566 59H14.7279C16.3473 59 17.7096 57.8804 18.083 56.375L19.4531 57.5698C20.5108 58.4922 21.866 59.0001 23.2694 59.0001H58.0549C58.6912 59.0001 59.2072 58.4841 59.2072 57.8478V1.15234C59.207 0.846742 59.0858 0.553586 58.8697 0.337521ZM15.88 55.5431C15.88 56.1784 15.3631 56.6954 14.7277 56.6954H3.66554C3.03014 56.6954 2.5132 56.1785 2.5132 55.5431V36.7603C2.5132 36.1249 3.03014 35.608 3.66554 35.608H8.04433V48.8824C8.04433 49.5187 8.56035 50.0348 9.19667 50.0348C9.833 50.0348 10.349 49.5187 10.349 48.8824V35.608H14.7278C15.3632 35.608 15.8802 36.1249 15.8802 36.7603V55.5431H15.88ZM19.342 9.30391L28.5555 6.83513V11.1051L27.7832 11.3121C27.4878 11.3913 27.2363 11.5843 27.0835 11.849C26.9307 12.1137 26.8892 12.4281 26.9683 12.7234C27.4112 14.3759 26.427 16.0806 24.7744 16.5235C24.4788 16.6027 24.2268 16.7961 24.0741 17.0614C23.9214 17.3265 23.8803 17.6416 23.9602 17.937L28.4519 34.5697H26.1391L24.9473 29.9069C24.9093 29.7585 24.843 29.6217 24.7541 29.5028L19.342 9.30391ZM28.5555 16.3897V26.1133L26.4537 18.3309C27.3317 17.8776 28.0502 17.1993 28.5555 16.3897ZM45.1105 56.6953H23.2692C22.4228 56.6953 21.6055 56.389 20.9675 55.8328L18.1847 53.4058V37.4681L23.2156 32.4372L24.1281 36.0072C24.2585 36.5173 24.7179 36.8741 25.2444 36.8741L47.9 36.8755C48.7896 36.8755 49.5133 37.5991 49.5133 38.4887C49.5133 39.3784 48.7896 40.102 47.9 40.102H36.2913C35.6549 40.102 35.1389 40.618 35.1389 41.2544C35.1389 41.8907 35.6549 42.4067 36.2913 42.4067H51.5068C52.3964 42.4067 53.1201 43.1304 53.1201 44.02C53.1201 44.9096 52.3964 45.6333 51.5068 45.6333H36.2913C35.6549 45.6333 35.1389 46.1493 35.1389 46.7856C35.1389 47.4219 35.6549 47.938 36.2913 47.938H49.0411C49.9308 47.938 50.6544 48.6616 50.6544 49.5512C50.6544 50.4409 49.9308 51.1645 49.0411 51.1645H36.2913C35.6549 51.1645 35.1389 51.6805 35.1389 52.3169C35.1389 52.9532 35.6549 53.4692 36.2913 53.4692H45.1105C46.0001 53.4692 46.7238 54.1929 46.7238 55.0825C46.7237 55.9716 46 56.6953 45.1105 56.6953ZM56.9025 56.6953H56.9024H48.6794C48.9029 56.2029 49.0284 55.6571 49.0284 55.082C49.0284 54.507 48.9029 53.9611 48.6794 53.4688H49.0411C51.2014 53.4688 52.959 51.7112 52.959 49.5509C52.959 48.9208 52.8086 48.3254 52.5431 47.7974C54.202 47.3417 55.4246 45.8212 55.4246 44.0198C55.4246 43.1458 55.1367 42.3379 54.6512 41.6857V27.0809C54.6512 26.4446 54.1352 25.9285 53.4989 25.9285C52.8625 25.9285 52.3465 26.4446 52.3465 27.0809V40.1936C52.0757 40.1343 51.7949 40.102 51.5066 40.102H51.4688C51.6922 39.6096 51.8177 39.0638 51.8177 38.4887C51.8177 36.3283 50.0602 34.5709 47.8999 34.5709H46.0475C48.0144 33.7274 49.3958 31.7723 49.3958 29.5C49.3958 26.4591 46.922 23.9851 43.8811 23.9851C40.8403 23.9851 38.3663 26.4591 38.3663 29.5C38.3663 31.7723 39.7478 33.7274 41.7147 34.5709H35.4156V12.66C37.4742 12.2114 39.0985 10.5872 39.547 8.5285H48.215C48.6635 10.5872 50.2879 12.2114 52.3464 12.66V16.2426C52.3464 16.879 52.8624 17.395 53.4988 17.395C54.1351 17.395 54.6511 16.879 54.6511 16.2426V11.6312C54.6511 10.9949 54.1351 10.4788 53.4988 10.4788C51.7879 10.4788 50.3962 9.08692 50.3962 7.37615C50.3962 6.73983 49.8802 6.22381 49.2438 6.22381H38.5183C37.882 6.22381 37.3659 6.73983 37.3659 7.37615C37.3659 9.08704 35.9741 10.4788 34.2634 10.4788C33.6271 10.4788 33.111 10.9949 33.111 11.6312V34.5708H30.8603V2.30595L56.9025 2.30469V56.6953ZM43.8813 32.7102C42.1112 32.7102 40.6712 31.2701 40.6712 29.5001C40.6712 27.7301 42.1113 26.2899 43.8813 26.2899C45.6513 26.2899 47.0914 27.73 47.0914 29.5C47.0914 31.27 45.6514 32.7102 43.8813 32.7102Z" fill="white"/>
</g>
<defs>
<clipPath id="clip0">
<rect width="59" height="59" fill="white" transform="translate(0.206787)"/>
</clipPath>
</defs>
</svg>
