<svg width="20" height="20" viewBox="0 0 20 20" fill="none" xmlns="http://www.w3.org/2000/svg">
<path fill-rule="evenodd" clip-rule="evenodd" d="M16.6663 2.5H3.33301C1.95639 2.5 0.841341 3.62279 0.841341 5L0.833008 14.9993C0.833008 16.3769 1.9561 17.5 3.33301 17.5H16.6663C18.0432 17.5 19.1663 16.3769 19.1663 15V5C19.1663 3.6231 18.0432 2.5 16.6663 2.5ZM4.56978 7.50016C4.17557 7.26264 4.04855 6.75052 4.28607 6.35631C4.52359 5.9621 5.03572 5.83508 5.42992 6.0726L9.97522 8.81126L14.7179 5.95366C15.1128 5.71576 15.6257 5.84298 15.8636 6.23783C16.101 6.63177 15.9749 7.1435 15.5817 7.38213L10.0081 10.7649L10.0028 10.7737L4.56978 7.50016Z" fill="#C8C8C8"/>
<mask id="mask0" mask-type="alpha" maskUnits="userSpaceOnUse" x="0" y="2" width="20" height="16">
<path fill-rule="evenodd" clip-rule="evenodd" d="M16.6663 2.5H3.33301C1.95639 2.5 0.841341 3.62279 0.841341 5L0.833008 14.9993C0.833008 16.3769 1.9561 17.5 3.33301 17.5H16.6663C18.0432 17.5 19.1663 16.3769 19.1663 15V5C19.1663 3.6231 18.0432 2.5 16.6663 2.5ZM4.56978 7.50016C4.17557 7.26264 4.04855 6.75052 4.28607 6.35631C4.52359 5.9621 5.03572 5.83508 5.42992 6.0726L9.97522 8.81126L14.7179 5.95366C15.1128 5.71576 15.6257 5.84298 15.8636 6.23783C16.101 6.63177 15.9749 7.1435 15.5817 7.38213L10.0081 10.7649L10.0028 10.7737L4.56978 7.50016Z" fill="white"/>
</mask>
<g mask="url(#mask0)">
<rect width="20" height="20" fill="#00917E"/>
</g>
</svg>
