<svg width="16" height="16" viewBox="0 0 16 16" fill="none" xmlns="http://www.w3.org/2000/svg">
<path fill-rule="evenodd" clip-rule="evenodd" d="M13.3332 2H2.6665C1.56521 2 0.67317 2.89823 0.67317 4L0.666504 11.9994C0.666504 13.1015 1.56498 14 2.6665 14H13.3332C14.4347 14 15.3332 13.1015 15.3332 12V4C15.3332 2.89848 14.4347 2 13.3332 2ZM3.65591 6.0001C3.34054 5.81008 3.23892 5.40038 3.42894 5.08502C3.61896 4.76965 4.02865 4.66803 4.34402 4.85805L7.98031 7.04901L11.7744 4.76296C12.0903 4.57264 12.5006 4.67442 12.691 4.99029C12.8809 5.30545 12.78 5.71483 12.4655 5.90574L8.00652 8.61198L8.00233 8.61893L3.65591 6.0001Z" fill="white"/>
<mask id="mask0" mask-type="alpha" maskUnits="userSpaceOnUse" x="0" y="2" width="16" height="12">
<path fill-rule="evenodd" clip-rule="evenodd" d="M13.3332 2H2.6665C1.56521 2 0.67317 2.89823 0.67317 4L0.666504 11.9994C0.666504 13.1015 1.56498 14 2.6665 14H13.3332C14.4347 14 15.3332 13.1015 15.3332 12V4C15.3332 2.89848 14.4347 2 13.3332 2ZM3.65591 6.0001C3.34054 5.81008 3.23892 5.40038 3.42894 5.08502C3.61896 4.76965 4.02865 4.66803 4.34402 4.85805L7.98031 7.04901L11.7744 4.76296C12.0903 4.57264 12.5006 4.67442 12.691 4.99029C12.8809 5.30545 12.78 5.71483 12.4655 5.90574L8.00652 8.61198L8.00233 8.61893L3.65591 6.0001Z" fill="white"/>
</mask>
<g mask="url(#mask0)">
<rect width="16" height="16" fill="white"/>
</g>
</svg>
